# xmcd
#
# Track frame offsets: 
#        150
#        16877
#        36206
#        57050
#        79135
#        118723
#        141970
#        152765
#        165672
#        187472
#        211907
#        237833
#        258681
#        270207
#
# Disc length: 4040 seconds
#
# Revision: 1
# Processed by: cddbd v1.5.2PL0 Copyright (c) Steve Scherf et al.
# Submitted via: ExactAudioCopy v0.99pb4
#
DISCID=c00fc60e
DTITLE=Britta Medeiros and Michael Sagmeister - When The Moment Sings
DYEAR=2005
DGENRE=Jazz
TTITLE0=Nature Boy
TTITLE1=Round Midnight
TTITLE2=My Foolish Heart
TTITLE3=Two of a Kind
TTITLE4=Beautiful Love
TTITLE5=If You Just Believe
TTITLE6=Night Ride Home
TTITLE7=Behind the smile
TTITLE8=You've got a Friend
TTITLE9=Sailing
TTITLE10=When the Moment swings
TTITLE11=Icon fo Life
TTITLE12=My funny Valentine
TTITLE13=All Blues
EXTD=YEAR: 2005
EXTT0=
EXTT1=
EXTT2=
EXTT3=
EXTT4=
EXTT5=
EXTT6=
EXTT7=
EXTT8=
EXTT9=
EXTT10=
EXTT11=
EXTT12=
EXTT13=
PLAYORDER=
